<svg xmlns="http://www.w3.org/2000/svg" viewBox="0 0 147.26 311.58"><defs><style>.cls-1{fill:#535461;}.cls-2{fill:#e0e0e0;}.cls-3{fill:#eee;}</style></defs><title>svgAsset 2</title><g id="Layer_2" data-name="Layer 2"><g id="Layer_1-2" data-name="Layer 1"><g id="rocket"><path class="cls-1" d="M26.51,311.58H13.82l2.27-15.39h8.15Z"/><path class="cls-1" d="M135.25,311.58H122.56l2.27-15.39H133Z"/><path class="cls-1" d="M67.74,311.58H55.06l2.26-15.39h8.16Z"/><path class="cls-1" d="M93.57,311.58H80.88l2.26-15.39H91.3Z"/><path class="cls-1" d="M117.13,169H26.51v3.62h90.62Z"/><path class="cls-2" d="M131.13,111.78a5.11,5.11,0,0,0-5.86-1.24,5.11,5.11,0,0,0-1.71,1.24,48.49,48.49,0,0,0-7.1,10.47,82.65,82.65,0,0,0-9.3,38.47V300.07h40.1V160.13a82.25,82.25,0,0,0-8.86-37.47A46.6,46.6,0,0,0,131.13,111.78Z"/><path class="cls-2" d="M16.13,111.78A5.09,5.09,0,0,1,22,110.54a5.05,5.05,0,0,1,1.72,1.24,48.88,48.88,0,0,1,7.11,10.47,82.77,82.77,0,0,1,9.29,38.47V300.07H0V160.13a82.37,82.37,0,0,1,8.86-37.47A46.6,46.6,0,0,1,16.13,111.78Z"/><path class="cls-1" d="M.23,163.1l9.52.05v11.72H.23Z"/><path class="cls-1" d="M30.59,163.1l9.51.05v11.72H30.59Z"/><path class="cls-1" d="M107.16,163.1l9.51.05v11.72h-9.51Z"/><path class="cls-1" d="M137.51,163.1l9.52.05v11.72h-9.52Z"/><path class="cls-3" d="M78.66,2.51a7.07,7.07,0,0,0-10.8,0A74.56,74.56,0,0,0,57.7,18.21,128.93,128.93,0,0,0,44.42,75.86V299.51h57.22V75A128.57,128.57,0,0,0,89,18.81C85.07,10.68,81.45,5.62,78.66,2.51Z"/><path class="cls-1" d="M81.71,27.36H63.62a5.88,5.88,0,0,0-5.89,5.87v1.92A5.89,5.89,0,0,0,63.62,41H81.71a5.88,5.88,0,0,0,5.88-5.88V33.23A5.87,5.87,0,0,0,81.71,27.36Z"/></g></g></g></svg>