<?xml version="1.0" encoding="utf-8"?>
<!-- Generator: Adobe Illustrator 23.1.0, SVG Export Plug-In . SVG Version: 6.00 Build 0)  -->
<svg version="1.1" id="Layer_1" xmlns="http://www.w3.org/2000/svg" xmlns:xlink="http://www.w3.org/1999/xlink" x="0px" y="0px"
	 viewBox="0 0 607 435" style="enable-background:new 0 0 607 435;" xml:space="preserve">
<style type="text/css">
	.st0{clip-path:url(#SVGID_2_);}
	.st1{fill:#6C63FF;}
	.st2{display:none;fill:#6C63FF;}
	.st3{opacity:0.7;}
	.st4{opacity:0.7;fill:url(#SVGID_3_);enable-background:new    ;}
	.st5{opacity:0.2;enable-background:new    ;}
	.st6{fill:#FFFFFF;}
	.st7{opacity:0.7;fill:url(#SVGID_4_);enable-background:new    ;}
	.st8{opacity:0.1;}
	.st9{opacity:0.1;enable-background:new    ;}
	.st10{display:none;}
	.st11{display:inline;fill:url(#SVGID_5_);}
	.st12{display:inline;fill:url(#SVGID_6_);}
	.st13{display:inline;fill:url(#SVGID_7_);}
	.st14{display:inline;fill:url(#SVGID_8_);}
	.st15{display:inline;fill:#535461;}
	.st16{display:inline;fill:#E0E0E0;}
	.st17{display:inline;fill:#EEEEEE;}
	.st18{fill:url(#SVGID_9_);}
	.st19{fill:url(#SVGID_10_);}
</style>
<g>
	<defs>
		<rect id="SVGID_1_" width="607" height="435"/>
	</defs>
	<clipPath id="SVGID_2_">
		<use xlink:href="#SVGID_1_"  style="overflow:visible;"/>
	</clipPath>
	<g class="st0">
		<rect class="st1" width="607" height="435"/>
		<path class="st2" d="M529.9,378.4c-4.9,0.4-9.9,0.4-14.8-0.2c-54.1-6-127.7-4.3-187.7,32.9c-83,51.4-213.1,7.4-270.5-16.5
			C13,376.3-9.7,331.6,3.9,289.5c0.2-0.6,0.4-1.2,0.6-1.8c8.6-25,25.6-44.5,46.6-54.9c18.3-9,45.1-27.9,57-64.1
			c4.9-15,11.7-29,20.4-41.3c23.5-32.9,72.6-81.8,157.1-81.5c14.8,0.1,29.5,2.6,43.5,7.4c30.9,10.5,58.7,31.9,80,61.5
			c13.6,18.9,33.9,36.5,63,37.9c40.4,2,78.9,20.8,107.9,54.2c0.8,1,1.7,1.9,2.5,2.9C634.1,271.2,598.3,372.5,529.9,378.4z"/>
		<g class="st3">
			
				<linearGradient id="SVGID_3_" gradientUnits="userSpaceOnUse" x1="148.3625" y1="63.566" x2="148.3625" y2="78.312" gradientTransform="matrix(1 0 0 -1 0 436)">
				<stop  offset="0" style="stop-color:#808080;stop-opacity:0.25"/>
				<stop  offset="0.54" style="stop-color:#808080;stop-opacity:0.12"/>
				<stop  offset="1" style="stop-color:#808080;stop-opacity:0.1"/>
			</linearGradient>
			<path class="st4" d="M148.4,372.4c4.1,0,7.4-3.3,7.4-7.4s-3.3-7.4-7.4-7.4c-4.1,0-7.4,3.3-7.4,7.4S144.3,372.4,148.4,372.4z"/>
		</g>
		<path class="st5" d="M148.4,372.1c3.9,0,7-3.2,7-7s-3.2-7-7-7c-3.9,0-7,3.2-7,7S144.5,372.1,148.4,372.1z"/>
		<path class="st5" d="M175.9,51.6c3.9,0,7-3.2,7-7s-3.2-7-7-7c-3.9,0-7,3.2-7,7S172,51.6,175.9,51.6z"/>
		<path class="st5" d="M87.7,92.6c3.9,0,7-3.2,7-7s-3.2-7-7-7c-3.9,0-7,3.2-7,7S83.8,92.6,87.7,92.6z"/>
		<path class="st6" d="M108.6,224c1.5,0,2.7-1.2,2.7-2.7c0-1.5-1.2-2.7-2.7-2.7c-1.5,0-2.7,1.2-2.7,2.7
			C105.9,222.8,107.1,224,108.6,224z"/>
		<path class="st6" d="M306.2,146.8c1.5,0,2.7-1.2,2.7-2.7c0-1.5-1.2-2.7-2.7-2.7c-1.5,0-2.7,1.2-2.7,2.7
			C303.5,145.6,304.7,146.8,306.2,146.8z"/>
		<path class="st6" d="M303.2,382.1c1.5,0,2.7-1.2,2.7-2.7c0-1.5-1.2-2.7-2.7-2.7c-1.5,0-2.7,1.2-2.7,2.7
			C300.5,380.9,301.7,382.1,303.2,382.1z"/>
		<path class="st6" d="M188.3,394.8c0.8,0,1.5-0.7,1.5-1.5c0-0.8-0.7-1.5-1.5-1.5c-0.8,0-1.5,0.7-1.5,1.5
			C186.8,394.1,187.4,394.8,188.3,394.8z"/>
		<path class="st6" d="M525.7,321.1c0.8,0,1.5-0.7,1.5-1.5c0-0.8-0.7-1.5-1.5-1.5c-0.8,0-1.5,0.7-1.5,1.5
			C524.2,320.4,524.8,321.1,525.7,321.1z"/>
		<path class="st6" d="M484.7,400.8c0.8,0,1.5-0.7,1.5-1.5c0-0.8-0.7-1.5-1.5-1.5c-0.8,0-1.5,0.7-1.5,1.5
			C483.2,400.2,483.9,400.8,484.7,400.8z"/>
		<path class="st6" d="M291.1,290.3c0.8,0,1.5-0.7,1.5-1.5c0-0.8-0.7-1.5-1.5-1.5c-0.8,0-1.5,0.7-1.5,1.5
			C289.5,289.7,290.2,290.3,291.1,290.3z"/>
		<path class="st6" d="M75.1,156.6c0.8,0,1.5-0.7,1.5-1.5c0-0.8-0.7-1.5-1.5-1.5c-0.8,0-1.5,0.7-1.5,1.5
			C73.5,155.9,74.2,156.6,75.1,156.6z"/>
		<path class="st6" d="M504.9,87.4c0.8,0,1.5-0.7,1.5-1.5c0-0.8-0.7-1.5-1.5-1.5c-0.8,0-1.5,0.7-1.5,1.5
			C503.4,86.7,504.1,87.4,504.9,87.4z"/>
		<path class="st6" d="M554.5,23.5c0.8,0,1.5-0.7,1.5-1.5c0-0.8-0.7-1.5-1.5-1.5c-0.8,0-1.5,0.7-1.5,1.5
			C553,22.8,553.7,23.5,554.5,23.5z"/>
		<path class="st6" d="M402.2,86.9c0.8,0,1.5-0.7,1.5-1.5c0-0.8-0.7-1.5-1.5-1.5c-0.8,0-1.5,0.7-1.5,1.5
			C400.7,86.2,401.4,86.9,402.2,86.9z"/>
		<path class="st6" d="M438.5,184.3c0.8,0,1.5-0.7,1.5-1.5c0-0.8-0.7-1.5-1.5-1.5c-0.8,0-1.5,0.7-1.5,1.5
			C437,183.6,437.7,184.3,438.5,184.3z"/>
		<path class="st6" d="M562,251.1c0.8,0,1.5-0.7,1.5-1.5s-0.7-1.5-1.5-1.5c-0.8,0-1.5,0.7-1.5,1.5S561.2,251.1,562,251.1z"/>
		<path class="st6" d="M156.7,134.8c1.5,0,2.7-1.2,2.7-2.7c0-1.5-1.2-2.7-2.7-2.7s-2.7,1.2-2.7,2.7
			C154,133.5,155.2,134.8,156.7,134.8z"/>
		<path class="st6" d="M81.8,316.4h-2.4V314h-1v2.4h-2.4v1h2.4v2.4h1v-2.4h2.4V316.4z"/>
		<path class="st6" d="M142.7,315.3h-2.4v-2.4h-1v2.4h-2.4v1h2.4v2.4h1v-2.4h2.4V315.3z"/>
		<path class="st6" d="M229.9,364.5h-2.4V362h-1v2.4h-2.4v1h2.4v2.4h1v-2.4h2.4V364.5z"/>
		<path class="st6" d="M351.3,69.8h-1.1v-1.1h-0.4v1.1h-1.1v0.4h1.1v1.1h0.4v-1.1h1.1V69.8z"/>
		<path class="st6" d="M339.8,250.4h-1.1v-1.1h-0.4v1.1h-1.1v0.4h1.1v1.1h0.4v-1.1h1.1V250.4z"/>
		<path class="st6" d="M509,171.3h-1.1v-1.1h-0.5v1.1h-1.1v0.4h1.1v1.1h0.5v-1.1h1.1V171.3z"/>
		<path class="st6" d="M416,237.6h-1.1v-1.1h-0.4v1.1h-1.1v0.4h1.1v1.1h0.4V238h1.1V237.6z"/>
		<path class="st6" d="M37.4,279.3h-1.1v-1.1h-0.4v1.1h-1.1v0.4h1.1v1.1h0.4v-1.1h1.1V279.3z"/>
		<path class="st6" d="M82.9,370.1h-1.1V369h-0.4v1.1h-1.1v0.4h1.1v1.1h0.4v-1.1h1.1V370.1z"/>
		<path class="st6" d="M225.6,83.2h-1.1v-1.1h-0.4v1.1H223v0.4h1.1v1.1h0.4v-1.1h1.1V83.2z"/>
		<path class="st6" d="M158.3,242.9h-1.1v-1.1h-0.4v1.1h-1.1v0.4h1.1v1.1h0.4v-1.1h1.1V242.9z"/>
		<path class="st6" d="M172.7,197h-1.1v-1.1h-0.4v1.1H170v0.4h1.1v1.1h0.4v-1.1h1.1V197z"/>
		<g class="st3">
			
				<linearGradient id="SVGID_4_" gradientUnits="userSpaceOnUse" x1="400.049" y1="-6835.9902" x2="400.049" y2="-6552.5098" gradientTransform="matrix(1 0 0 -1 0 436)">
				<stop  offset="0" style="stop-color:#808080;stop-opacity:0.25"/>
				<stop  offset="0.54" style="stop-color:#808080;stop-opacity:0.12"/>
				<stop  offset="1" style="stop-color:#808080;stop-opacity:0.1"/>
			</linearGradient>
			<path class="st7" d="M400,303c3.4,0,6.2-2.8,6.2-6.2s-2.8-6.2-6.2-6.2c-3.4,0-6.2,2.8-6.2,6.2S396.6,303,400,303z"/>
		</g>
		<path class="st5" d="M400,302.6c3.2,0,5.7-2.6,5.7-5.7s-2.6-5.7-5.7-5.7s-5.7,2.6-5.7,5.7S396.9,302.6,400,302.6z"/>
		<path class="st5" d="M415.4,343.4c3.5,0,6.4-2.9,6.4-6.4c0-3.5-2.9-6.4-6.4-6.4c-3.5,0-6.4,2.9-6.4,6.4
			C409,340.5,411.9,343.4,415.4,343.4z"/>
		<path class="st5" d="M476.8,230.2c3.5,0,6.4-2.9,6.4-6.4c0-3.5-2.9-6.4-6.4-6.4c-3.5,0-6.4,2.9-6.4,6.4
			C470.4,227.4,473.3,230.2,476.8,230.2z"/>
		<g class="st8">
			<path class="st9" d="M222.3,303.4h9.4l-0.6-4.3h-8.2L222.3,303.4z"/>
		</g>
		<g class="st8">
			<path class="st9" d="M331,303.4h9.4l-0.6-4.3h-8.2L331,303.4z"/>
		</g>
		<g class="st8">
			<path class="st9" d="M263.5,303.4h9.4l-0.6-4.3h-8.2L263.5,303.4z"/>
		</g>
		<g class="st8">
			<path class="st9" d="M289.4,303.4h9.4l-0.6-4.3H290L289.4,303.4z"/>
		</g>
		<g id="rocket_fire" class="st10">
			
				<linearGradient id="SVGID_5_" gradientUnits="userSpaceOnUse" x1="227.006" y1="123.328" x2="227.006" y2="88.922" gradientTransform="matrix(1 0 0 -1 0 436)">
				<stop  offset="0" style="stop-color:#E0E0E0"/>
				<stop  offset="0.31" style="stop-color:#FCCC63"/>
				<stop  offset="0.77" style="stop-color:#F55F44"/>
			</linearGradient>
			<path class="st11" d="M227.2,347.1h-0.3c-1.6,0-3.2-0.6-4.4-1.8c-1.2-1.2-1.8-2.7-1.8-4.4v-28.2h12.7v28.2c0,1.6-0.7,3.2-1.8,4.4
				S228.8,347.1,227.2,347.1z"/>
			
				<linearGradient id="SVGID_6_" gradientUnits="userSpaceOnUse" x1="268.2355" y1="-21488.4004" x2="268.2355" y2="-23704.0996" gradientTransform="matrix(1 0 0 -1 0 436)">
				<stop  offset="0" style="stop-color:#E0E0E0"/>
				<stop  offset="0.31" style="stop-color:#FCCC63"/>
				<stop  offset="0.77" style="stop-color:#F55F44"/>
			</linearGradient>
			<path class="st12" d="M268.4,347.1h-0.4c-1.6,0-3.2-0.7-4.4-1.8c-1.2-1.2-1.8-2.7-1.8-4.4v-28.2h12.7v28.2c0,1.6-0.6,3.2-1.8,4.4
				C271.6,346.4,270,347.1,268.4,347.1z"/>
			
				<linearGradient id="SVGID_7_" gradientUnits="userSpaceOnUse" x1="294.0625" y1="-21488.4004" x2="294.0625" y2="-23704.0996" gradientTransform="matrix(1 0 0 -1 0 436)">
				<stop  offset="0" style="stop-color:#E0E0E0"/>
				<stop  offset="0.31" style="stop-color:#FCCC63"/>
				<stop  offset="0.77" style="stop-color:#F55F44"/>
			</linearGradient>
			<path class="st13" d="M294.2,347.1h-0.4c-1.6,0-3.2-0.7-4.4-1.8c-1.2-1.2-1.8-2.7-1.8-4.4v-28.2h12.7v28.2c0,1.6-0.6,3.2-1.8,4.4
				C297.4,346.4,295.9,347.1,294.2,347.1z"/>
			
				<linearGradient id="SVGID_8_" gradientUnits="userSpaceOnUse" x1="335.7435" y1="-21488.4004" x2="335.7435" y2="-23704.1992" gradientTransform="matrix(1 0 0 -1 0 436)">
				<stop  offset="0" style="stop-color:#E0E0E0"/>
				<stop  offset="0.31" style="stop-color:#FCCC63"/>
				<stop  offset="0.77" style="stop-color:#F55F44"/>
			</linearGradient>
			<path class="st14" d="M335.9,347.1h-0.3c-0.8,0-1.6-0.2-2.4-0.5c-0.8-0.3-1.4-0.8-2-1.3c-0.6-0.6-1-1.3-1.3-2
				c-0.3-0.7-0.5-1.6-0.5-2.4v-28.2h12.7v28.2c0,1.6-0.6,3.2-1.8,4.4C339.1,346.4,337.6,347.1,335.9,347.1z"/>
		</g>
		<g id="rocket" class="st10">
			<path class="st15" d="M233.4,312.7h-12.7l2.3-15.4h8.2L233.4,312.7z"/>
			<path class="st15" d="M342.1,312.7h-12.7l2.3-15.4h8.2L342.1,312.7z"/>
			<path class="st15" d="M274.6,312.7h-12.7l2.3-15.4h8.2L274.6,312.7z"/>
			<path class="st15" d="M300.4,312.7h-12.7l2.3-15.4h8.2L300.4,312.7z"/>
			<path class="st15" d="M324,170.1h-90.6v3.6H324V170.1z"/>
			<path class="st16" d="M338,112.9c-0.5-0.5-1.1-1-1.7-1.2c-0.7-0.3-1.4-0.4-2.1-0.4c-0.7,0-1.4,0.1-2.1,0.4
				c-0.7,0.3-1.2,0.7-1.7,1.2c-2.6,2.8-5,6.5-7.1,10.5c-6.2,11.9-9.4,25.1-9.3,38.5v139.4h40.1V161.2c0-13-3-25.9-8.9-37.5
				C342.5,118.3,339.9,114.9,338,112.9z"/>
			<path class="st16" d="M223,112.9c0.5-0.5,1.1-1,1.7-1.2c0.7-0.3,1.4-0.4,2.1-0.4s1.4,0.1,2.1,0.4c0.7,0.3,1.2,0.7,1.7,1.2
				c2.6,2.8,5,6.5,7.1,10.5c6.2,11.9,9.4,25.1,9.3,38.5v139.4h-40.1V161.2c-0.1-13,3-25.9,8.9-37.5C218.5,118.3,221,114.9,223,112.9
				z"/>
			<path class="st15" d="M207.1,164.2l9.5,0V176h-9.5V164.2z"/>
			<path class="st15" d="M237.4,164.2l9.5,0V176h-9.5V164.2z"/>
			<path class="st15" d="M314,164.2l9.5,0V176H314V164.2z"/>
			<path class="st15" d="M344.4,164.2l9.5,0V176h-9.5V164.2z"/>
			<path class="st17" d="M285.5,3.6c-0.7-0.8-1.5-1.4-2.4-1.9c-0.9-0.4-2-0.7-3-0.7s-2,0.2-3,0.7c-0.9,0.4-1.8,1.1-2.4,1.9
				c-3.7,4.2-7.2,9.8-10.2,15.7c-8.8,17.5-13.3,37.5-13.3,57.7v223.6h57.2V76.1c0-19.6-4.3-39-12.6-56.2
				C291.9,11.8,288.3,6.7,285.5,3.6z"/>
			<path class="st15" d="M288.5,28.4h-18.1c-3.2,0-5.9,2.6-5.9,5.9v1.9c0,3.2,2.6,5.9,5.9,5.9h18.1c3.2,0,5.9-2.6,5.9-5.9v-1.9
				C294.4,31.1,291.8,28.4,288.5,28.4z"/>
		</g>
		
			<linearGradient id="SVGID_9_" gradientUnits="userSpaceOnUse" x1="392.3005" y1="-14734.4004" x2="392.3005" y2="-12215.7998" gradientTransform="matrix(1 0 0 -1 0 436)">
			<stop  offset="0" style="stop-color:#808080;stop-opacity:0.25"/>
			<stop  offset="0.54" style="stop-color:#808080;stop-opacity:0.12"/>
			<stop  offset="1" style="stop-color:#808080;stop-opacity:0.1"/>
		</linearGradient>
		<path class="st18" d="M406.9,166.3c-1.5-1.9-3.3-3.6-5.5-4.8c-2.4-1.4-5.2-2.2-8-2.4c-2.8-0.2-5.6,0.3-8.2,1.4
			c-2.6,1.1-4.9,2.7-6.8,4.9c-1.9,2.1-3.2,4.6-3.9,7.3c-0.7,2.7-0.8,5.6-0.3,8.3c0.5,2.8,1.7,5.4,3.4,7.6c1.7,2.2,3.9,4,6.4,5.3
			c2.5,1.2,5.3,1.9,8.1,1.9c0.4,0,0.8,0,1.2,0c3.3-0.2,6.5-1.3,9.2-3.2c2.7-1.9,4.9-4.5,6.3-7.5c1.4-3,1.9-6.3,1.6-9.6
			C410.2,172.1,408.9,169,406.9,166.3L406.9,166.3z"/>
		<path class="st5" d="M409.6,177.4c0,4.4-1.7,8.6-4.7,11.9c-3,3.2-7.2,5.2-11.6,5.4c-0.4,0-0.7,0-1.1,0c-2.7,0-5.3-0.6-7.7-1.8
			c-2.4-1.2-4.5-2.9-6.1-5c-1.6-2.1-2.7-4.6-3.3-7.2c-0.5-2.6-0.4-5.3,0.3-7.9c0.7-2.6,2-4.9,3.7-6.9c1.8-2,4-3.6,6.4-4.6
			c2.5-1,5.1-1.5,7.8-1.3c2.7,0.2,5.2,1,7.5,2.3c2,1.2,3.8,2.7,5.2,4.6C408.4,169.9,409.6,173.6,409.6,177.4z"/>
		<path class="st9" d="M388,166.4c-0.9,0.4-1.8,0.8-2.6,1.4c-0.6,0.3-1,0.7-1.4,1.2c-0.2,0.3-0.3,0.6-0.3,0.9c0,0.3,0.1,0.6,0.3,0.9
			c0.4,0.6,1.2,0.7,2,0.7c0.8,0.1,1.5,0,2.2-0.2c0.5-0.2,0.9-0.6,1.3-0.9l1.5-1.4c0.5-0.5,1.1-1.1,0.9-1.8c-0.1-0.2-0.3-0.4-0.5-0.6
			c-0.2-0.1-0.5-0.2-0.7-0.3c-1.3-0.3-2.6,0-3.7,0.7"/>
		<g class="st8">
			<path class="st9" d="M381.8,185.1c0.5,0,0.9-0.4,0.9-0.9c0-0.5-0.4-0.9-0.9-0.9s-0.9,0.4-0.9,0.9
				C380.9,184.7,381.3,185.1,381.8,185.1z"/>
		</g>
		<g class="st8">
			<path class="st9" d="M400.4,181.8c1.8,0,3.3-1.5,3.3-3.3s-1.5-3.3-3.3-3.3s-3.3,1.5-3.3,3.3S398.5,181.8,400.4,181.8z"/>
		</g>
		<g class="st8">
			<path class="st9" d="M406.2,166.9c0,0.9-0.3,1.7-0.8,2.5c-0.5,0.7-1.2,1.3-2,1.7c-0.8,0.4-1.7,0.5-2.5,0.3
				c-0.9-0.1-1.7-0.5-2.3-1.1c-0.7-0.6-1.1-1.3-1.4-2.2c-0.2-0.8-0.2-1.7,0-2.6c0.3-0.8,0.7-1.6,1.4-2.1c0.7-0.6,1.5-0.9,2.4-1
				C403,163.5,404.8,165.1,406.2,166.9z"/>
		</g>
		<g class="st8">
			<path class="st9" d="M406.5,187.4c-1.5,2.1-3.4,3.9-5.7,5.2c-2.3,1.3-4.8,2-7.4,2.2c0-0.2,0-0.5,0-0.7c0-1.5,0.4-3,1.2-4.3
				c0.8-1.3,1.9-2.3,3.3-3c1.4-0.7,2.9-1,4.4-0.8C403.8,185.9,405.3,186.5,406.5,187.4z"/>
		</g>
		
			<linearGradient id="SVGID_10_" gradientUnits="userSpaceOnUse" x1="159.6138" y1="-14642.5996" x2="159.6138" y2="-13414" gradientTransform="matrix(1 0 0 -1 0 436)">
			<stop  offset="0" style="stop-color:#808080;stop-opacity:0.25"/>
			<stop  offset="0.54" style="stop-color:#808080;stop-opacity:0.12"/>
			<stop  offset="1" style="stop-color:#808080;stop-opacity:0.1"/>
		</linearGradient>
		<path class="st19" d="M169.9,265.3c-1-1.4-2.3-2.5-3.8-3.4c-1.7-1-3.6-1.6-5.6-1.7c-2-0.1-3.9,0.2-5.8,0.9
			c-1.8,0.7-3.5,1.9-4.8,3.4c-1.3,1.5-2.3,3.2-2.8,5.1c-0.5,1.9-0.6,3.9-0.2,5.8c0.4,1.9,1.2,3.8,2.4,5.3c1.2,1.6,2.8,2.8,4.5,3.7
			c1.8,0.9,3.7,1.3,5.7,1.3c0.3,0,0.5,0,0.8,0c2.3-0.2,4.5-0.9,6.4-2.2c1.9-1.3,3.4-3.1,4.4-5.2c1-2.1,1.3-4.4,1.1-6.7
			C172.1,269.3,171.3,267.1,169.9,265.3L169.9,265.3z"/>
		<path class="st5" d="M171.8,273c0,3.1-1.2,6-3.3,8.3c-2.1,2.2-5,3.6-8.1,3.8c-0.3,0-0.5,0-0.8,0c-1.9,0-3.7-0.4-5.4-1.2
			c-1.7-0.8-3.1-2-4.2-3.5c-1.1-1.5-1.9-3.2-2.3-5c-0.4-1.8-0.3-3.7,0.2-5.5c0.5-1.8,1.4-3.4,2.6-4.8c1.2-1.4,2.8-2.5,4.5-3.2
			c1.7-0.7,3.6-1,5.4-0.9c1.9,0.1,3.7,0.7,5.3,1.6c1.4,0.8,2.6,1.9,3.6,3.2C170.9,267.8,171.8,270.4,171.8,273z"/>
		<path class="st9" d="M156.7,265.3c-0.6,0.3-1.2,0.6-1.8,0.9c-0.4,0.2-0.7,0.5-1,0.9c-0.1,0.2-0.2,0.4-0.2,0.6
			c0,0.2,0.1,0.4,0.2,0.6c0.2,0.2,0.4,0.3,0.6,0.4c0.2,0.1,0.5,0.1,0.7,0.1c0.5,0.1,1.1,0,1.6-0.2c0.3-0.2,0.6-0.4,0.9-0.7l1-0.9
			c0.4-0.3,0.8-0.8,0.6-1.2c-0.1-0.2-0.2-0.3-0.4-0.4c-0.2-0.1-0.3-0.2-0.5-0.2c-0.9-0.2-1.8,0-2.6,0.5"/>
		<g class="st8">
			<path class="st9" d="M152.4,278.4c0.4,0,0.6-0.3,0.6-0.6s-0.3-0.6-0.6-0.6c-0.4,0-0.6,0.3-0.6,0.6S152,278.4,152.4,278.4z"/>
		</g>
		<g class="st8">
			<path class="st9" d="M165.3,276.1c1.3,0,2.3-1,2.3-2.3c0-1.3-1-2.3-2.3-2.3s-2.3,1-2.3,2.3C163,275,164,276.1,165.3,276.1z"/>
		</g>
		<g class="st8">
			<path class="st9" d="M169.4,265.7c0,0.6-0.2,1.2-0.5,1.7c-0.3,0.5-0.8,0.9-1.4,1.2c-0.6,0.3-1.2,0.3-1.8,0.2
				c-0.6-0.1-1.2-0.4-1.6-0.8c-0.5-0.4-0.8-0.9-1-1.5c-0.2-0.6-0.2-1.2,0-1.8c0.2-0.6,0.5-1.1,1-1.5c0.5-0.4,1-0.6,1.7-0.7
				C167.1,263.3,168.4,264.4,169.4,265.7z"/>
		</g>
		<g class="st8">
			<path class="st9" d="M169.6,280c-1,1.5-2.4,2.7-4,3.6c-1.6,0.9-3.3,1.4-5.1,1.5c0-0.2,0-0.3,0-0.5c0-1.1,0.3-2.1,0.9-3
				c0.6-0.9,1.4-1.6,2.3-2.1s2-0.7,3.1-0.6C167.7,278.9,168.8,279.3,169.6,280L169.6,280z"/>
		</g>
		<path class="st6" d="M510.6,229.8c0.5,0,1-0.4,1-1c0-0.5-0.4-1-1-1s-1,0.4-1,1C509.6,229.3,510.1,229.8,510.6,229.8z"/>
	</g>
</g>
</svg>
